<?xml version="1.0" encoding="utf-8"?>
<!-- Generator: Adobe Illustrator 25.0.1, SVG Export Plug-In . SVG Version: 6.00 Build 0)  -->
<svg version="1.1" id="Capa_1" xmlns="http://www.w3.org/2000/svg" xmlns:xlink="http://www.w3.org/1999/xlink" x="0px" y="0px"
	 viewBox="0 0 300 140" style="enable-background:new 0 0 300 140;" xml:space="preserve">
<style type="text/css">
	.st0{fill:#95FC6B;}
	.st1{fill:#FFFFFF;}
</style>
<path class="st0" d="M122.58,62.41c0,0-9.46-6.29-16.5,1.45C99.05,71.61,99.74,76,99.74,76s12.42-0.5,16.82-4.45
	C120.96,67.6,122.58,62.41,122.58,62.41z"/>
<g>
	<g>
		<path d="M44.53,44.03h2.04l5.71,44.88h-2.04l-3.26-26.93c-0.54-5.03-1.22-10.2-1.77-15.64h-0.27c-2.72,5.58-5.44,10.33-8.3,15.64
			L21.96,88.9h-2.31L44.53,44.03z M30.39,70.95h19.04l-0.41,1.77H29.84L30.39,70.95z"/>
		<path d="M67.11,44.03h10.88c8.02,0,12.92,2.86,12.92,9.66c0,8.7-7.21,14.14-16.86,14.14h-9.65L60.17,88.9h-2.04L67.11,44.03z
			 M73.09,66.06c10.06,0,15.77-4.62,15.77-12.24c0-5.85-4.08-8.02-12.1-8.02h-8.02L64.8,66.06H73.09z M73.91,67.69l1.9-0.82
			l9.11,22.03h-2.31L73.91,67.69z"/>
		<path d="M95.12,71.09c0-11.97,7.62-27.88,21.08-27.88c9.79,0,14.41,7.75,14.41,18.63c0,11.97-7.62,27.88-21.08,27.88
			C99.75,89.72,95.12,81.97,95.12,71.09z M128.58,62.11c0-10.06-3.67-17.13-12.51-17.13c-12.24,0-18.9,15.23-18.9,25.84
			c0,10.06,3.67,17.13,12.51,17.13C121.91,87.95,128.58,72.72,128.58,62.11z"/>
		<path d="M144.22,44.03h3.4l4.49,27.06l1.77,10.2h0.27l5.3-10.2l14.96-27.06h3.4l-8.97,44.88h-2.04l6.26-31.28
			c0.82-3.67,1.77-8.16,2.58-11.69h-0.27l-5.3,9.65l-15.37,28.15h-2.31l-4.9-28.15l-1.63-9.65h-0.27
			c-0.68,3.67-1.36,8.02-2.04,11.69l-6.25,31.28h-2.04L144.22,44.03z"/>
		<path d="M199.3,45.93h-14.01l0.41-1.9h30.05l-0.41,1.9h-14.01l-8.57,42.97h-2.04L199.3,45.93z"/>
		<path d="M223.64,44.03h23.25l-0.41,1.77h-21.21l-3.67,18.36h17.95l-0.41,1.77h-17.81l-4.35,21.21h21.89l-0.41,1.77h-23.8
			L223.64,44.03z"/>
		<path d="M256.55,44.03h10.88c8.02,0,12.92,2.86,12.92,9.66c0,8.7-7.21,14.14-16.86,14.14h-9.66l-4.22,21.08h-2.04L256.55,44.03z
			 M262.54,66.06c10.06,0,15.77-4.62,15.77-12.24c0-5.85-4.08-8.02-12.1-8.02h-8.02l-3.94,20.26H262.54z M263.35,67.69l1.9-0.82
			l9.11,22.03h-2.31L263.35,67.69z"/>
	</g>
</g>
<path class="st1" d="M121.3,62.41c-0.82,0.19-13.33,3.33-14.46,7.94"/>
<path class="st0" d="M202.95,43.44c0,0,2.45-7.72-4.24-11.02c-6.69-3.3-9.57-1.96-9.57-1.96s2.79,8.42,6.36,10.65
	C199.08,43.35,202.95,43.44,202.95,43.44z"/>
<path class="st1" d="M202.67,42.59c-0.28-0.52-4.85-8.51-8.24-8.4"/>
<path class="st0" d="M202.96,42.53c0,0-1.43-7.97,5.63-10.38s9.74-0.71,9.74-0.71s-3.86,7.98-7.69,9.74S202.96,42.53,202.96,42.53z"
	/>
<path class="st1" d="M203.35,41.72c0.35-0.48,5.91-7.82,9.25-7.26"/>
</svg>
